<svg width="21" height="12" viewBox="0 0 9 12" fill="none" xmlns="http://www.w3.org/2000/svg">
<path d="M0.909091 12V0.363636H4.97727C5.78788 0.363636 6.45644 0.503788 6.98295 0.784091C7.50947 1.06061 7.90152 1.43371 8.15909 1.90341C8.41667 2.36932 8.54545 2.88636 8.54545 3.45455C8.54545 3.95455 8.45644 4.36742 8.27841 4.69318C8.10417 5.01894 7.87311 5.27652 7.58523 5.46591C7.30114 5.6553 6.99242 5.79545 6.65909 5.88636V6C7.01515 6.02273 7.37311 6.14773 7.73295 6.375C8.0928 6.60227 8.39394 6.92803 8.63636 7.35227C8.87879 7.77651 9 8.29545 9 8.90909C9 9.49242 8.86742 10.017 8.60227 10.483C8.33712 10.9489 7.91856 11.3182 7.34659 11.5909C6.77462 11.8636 6.0303 12 5.11364 12H0.909091ZM2.31818 10.75H5.11364C6.03409 10.75 6.6875 10.572 7.07386 10.2159C7.46402 9.85606 7.65909 9.42045 7.65909 8.90909C7.65909 8.51515 7.55871 8.15152 7.35795 7.81818C7.1572 7.48106 6.87121 7.21212 6.5 7.01136C6.12879 6.80682 5.68939 6.70455 5.18182 6.70455H2.31818V10.75ZM2.31818 5.47727H4.93182C5.35606 5.47727 5.73864 5.39394 6.07955 5.22727C6.42424 5.06061 6.69697 4.82576 6.89773 4.52273C7.10227 4.2197 7.20455 3.86364 7.20455 3.45455C7.20455 2.94318 7.02652 2.50947 6.67045 2.15341C6.31439 1.79356 5.75 1.61364 4.97727 1.61364H2.31818V5.47727Z" fill="#3B4753"/>
<path d="M0.909091 12H0.409091V12.5H0.909091V12ZM0.909091 0.363636V-0.136364H0.409091V0.363636H0.909091ZM6.98295 0.784091L6.74799 1.22545L6.75048 1.22676L6.98295 0.784091ZM8.15909 1.90341L7.72068 2.14383L7.72151 2.14532L8.15909 1.90341ZM8.27841 4.69318L7.83964 4.45339L7.83752 4.45736L8.27841 4.69318ZM7.58523 5.46591L7.31041 5.04819L7.30788 5.04988L7.58523 5.46591ZM6.65909 5.88636L6.52753 5.40398L6.15909 5.50447V5.88636H6.65909ZM6.65909 6H6.15909V6.4691L6.62724 6.49898L6.65909 6ZM7.73295 6.375L7.46596 6.79774H7.46596L7.73295 6.375ZM8.60227 10.483L9.03683 10.7303L8.60227 10.483ZM7.34659 11.5909L7.13139 11.1396H7.13139L7.34659 11.5909ZM2.31818 10.75H1.81818V11.25H2.31818V10.75ZM7.07386 10.2159L7.4127 10.5836L7.41286 10.5834L7.07386 10.2159ZM7.35795 7.81818L6.92835 8.07401L6.92964 8.07614L7.35795 7.81818ZM6.5 7.01136L6.25869 7.4493L6.26215 7.45117L6.5 7.01136ZM2.31818 6.70455V6.20455H1.81818V6.70455H2.31818ZM2.31818 5.47727H1.81818V5.97727H2.31818V5.47727ZM6.07955 5.22727L5.86189 4.77713L5.85994 4.77808L6.07955 5.22727ZM6.89773 4.52273L6.48329 4.24298L6.4809 4.24658L6.89773 4.52273ZM6.67045 2.15341L6.31503 2.50509L6.3169 2.50696L6.67045 2.15341ZM2.31818 1.61364V1.11364H1.81818V1.61364H2.31818ZM1.40909 12V0.363636H0.409091V12H1.40909ZM0.909091 0.863636H4.97727V-0.136364H0.909091V0.863636ZM4.97727 0.863636C5.734 0.863636 6.31508 0.994971 6.74799 1.22544L7.21792 0.342739C6.5978 0.0126038 5.84176 -0.136364 4.97727 -0.136364V0.863636ZM6.75048 1.22676C7.19991 1.46279 7.51551 1.76968 7.72069 2.14383L8.5975 1.66299C8.28752 1.09774 7.81903 0.658418 7.21543 0.341424L6.75048 1.22676ZM7.72151 2.14532C7.93539 2.5322 8.04545 2.96511 8.04545 3.45455H9.04545C9.04545 2.80762 8.89794 2.20644 8.59667 1.66149L7.72151 2.14532ZM8.04545 3.45455C8.04545 3.89862 7.96597 4.22227 7.83966 4.4534L8.71716 4.93297C8.94691 4.51258 9.04545 4.01047 9.04545 3.45455H8.04545ZM7.83752 4.45736C7.69969 4.71504 7.52365 4.90792 7.31042 5.0482L7.86004 5.88362C8.22257 5.64511 8.50865 5.32284 8.7193 4.92901L7.83752 4.45736ZM7.30788 5.04988C7.06904 5.20911 6.80965 5.32704 6.52753 5.40398L6.79065 6.36875C7.1752 6.26387 7.53323 6.1015 7.86258 5.88193L7.30788 5.04988ZM6.15909 5.88636V6H7.15909V5.88636H6.15909ZM6.62724 6.49898C6.88505 6.51544 7.16325 6.60656 7.46596 6.79774L7.99995 5.95226C7.58296 5.68889 7.14526 5.53001 6.69094 5.50102L6.62724 6.49898ZM7.46596 6.79774C7.74702 6.97526 7.99435 7.23652 8.20224 7.60034L9.07049 7.1042C8.79353 6.61954 8.43859 6.22929 7.99995 5.95226L7.46596 6.79774ZM8.20224 7.60034C8.39178 7.93203 8.5 8.36052 8.5 8.90909H9.5C9.5 8.23038 9.3658 7.621 9.07049 7.1042L8.20224 7.60034ZM8.5 8.90909C8.5 9.41357 8.38625 9.85166 8.16772 10.2356L9.03683 10.7303C9.3486 10.1824 9.5 9.57127 9.5 8.90909H8.5ZM8.16772 10.2356C7.96179 10.5975 7.62832 10.9026 7.13139 11.1396L7.56179 12.0422C8.20881 11.7337 8.71245 11.3002 9.03683 10.7303L8.16772 10.2356ZM7.13139 11.1396C6.64977 11.3692 5.98661 11.5 5.11364 11.5V12.5C6.07399 12.5 6.89947 12.358 7.56179 12.0422L7.13139 11.1396ZM5.11364 11.5H0.909091V12.5H5.11364V11.5ZM2.31818 11.25H5.11364V10.25H2.31818V11.25ZM5.11364 11.25C6.07337 11.25 6.88578 11.0692 7.4127 10.5836L6.73502 9.84823C6.48922 10.0748 5.99481 10.25 5.11364 10.25V11.25ZM7.41286 10.5834C7.90123 10.133 8.15909 9.56595 8.15909 8.90909H7.15909C7.15909 9.27496 7.0268 9.57912 6.73487 9.84837L7.41286 10.5834ZM8.15909 8.90909C8.15909 8.42543 8.03454 7.97243 7.78627 7.56022L6.92964 8.07614C7.08289 8.3306 7.15909 8.60487 7.15909 8.90909H8.15909ZM7.78755 7.56235C7.53716 7.14188 7.18219 6.81186 6.73785 6.57156L6.26215 7.45117C6.56024 7.61238 6.77724 7.82024 6.92836 8.07401L7.78755 7.56235ZM6.7413 6.57344C6.28287 6.32084 5.75714 6.20455 5.18182 6.20455V7.20455C5.62164 7.20455 5.97471 7.2928 6.2587 7.44928L6.7413 6.57344ZM5.18182 6.20455H2.31818V7.20455H5.18182V6.20455ZM1.81818 6.70455V10.75H2.81818V6.70455H1.81818ZM2.31818 5.97727H4.93182V4.97727H2.31818V5.97727ZM4.93182 5.97727C5.42311 5.97727 5.88216 5.88033 6.29915 5.67647L5.85994 4.77808C5.59511 4.90755 5.28901 4.97727 4.93182 4.97727V5.97727ZM6.2972 5.67741C6.71821 5.47385 7.06154 5.18078 7.31455 4.79887L6.4809 4.24658C6.3324 4.47074 6.13027 4.64736 5.86189 4.77713L6.2972 5.67741ZM7.31215 4.80246C7.57898 4.40716 7.70455 3.95102 7.70455 3.45455H6.70455C6.70455 3.77625 6.62556 4.03223 6.4833 4.24299L7.31215 4.80246ZM7.70455 3.45455C7.70455 2.81288 7.47546 2.25131 7.02401 1.79986L6.3169 2.50696C6.57757 2.76763 6.70455 3.07348 6.70455 3.45455H7.70455ZM7.02587 1.80173C6.53646 1.30711 5.81444 1.11364 4.97727 1.11364V2.11364C5.68556 2.11364 6.09233 2.28001 6.31504 2.50509L7.02587 1.80173ZM4.97727 1.11364H2.31818V2.11364H4.97727V1.11364ZM1.81818 1.61364V5.47727H2.81818V1.61364H1.81818Z" fill="#3B4753"/>
</svg>
