<svg width="21" height="21" viewBox="0 0 21 21" fill="none" xmlns="http://www.w3.org/2000/svg">
<rect x="1" y="1" width="19" height="19" rx="1.5" stroke="#E2E6EF"/>
<path d="M14.8125 16.7656H13.5938V2.875H14.8125V16.7656ZM17.0625 9.5625H14.5V8.53125H17.0625V9.5625ZM11.2188 4.375C11.2188 5.72917 10.9974 7.00521 10.5547 8.20312C10.112 9.40104 9.41667 10.5052 8.46875 11.5156C7.52083 12.526 6.3125 13.3958 4.84375 14.125L4.15625 13.1562C5.44792 12.5104 6.52865 11.7552 7.39844 10.8906C8.26823 10.026 8.92188 9.0651 9.35938 8.00781C9.79688 6.95052 10.0156 5.80729 10.0156 4.57812V4.375H11.2188ZM10.6406 5.40625H4.79688V4.375H10.6406V5.40625Z" fill="#E2E6EF"/>
</svg>
