<svg width="15" height="15" viewBox="0 0 18 15"  fill="none" xmlns="http://www.w3.org/2000/svg">
<path d="M4 7H17M4 2H17M4 11.5H17" stroke="#4C61FF" stroke-linecap="round"/>
<g clip-path="url(#clip0_29_128)">
<path d="M0.88802 0.348633V3H0.591797V0.692872H0.578777L0.00585938 1.12134V0.788085L0.591797 0.348633H0.88802Z" fill="#4C61FF"/>
</g>
<g clip-path="url(#clip1_29_128)">
<path d="M0.140707 8L0.137451 7.7583L0.941488 6.80615C1.22143 6.4729 1.3549 6.29346 1.3549 6.0481C1.3549 5.7771 1.14982 5.59766 0.886148 5.59766C0.606202 5.59766 0.427165 5.79907 0.427165 6.09571H0.150472C0.147217 5.62696 0.469482 5.31201 0.895915 5.31201C1.32235 5.31201 1.62834 5.63428 1.62834 6.0481C1.62834 6.34473 1.50464 6.57544 1.08797 7.05884L0.547608 7.68506V7.70703H1.67065V8H0.140707Z" fill="#4C61FF"/>
</g>
<g clip-path="url(#clip2_29_128)">
<path d="M0.905519 12.6992C0.436769 12.6992 0.101481 12.4486 0.0852051 12.0742H0.381429C0.397705 12.2988 0.622315 12.4388 0.902262 12.4388C1.21151 12.4388 1.43937 12.2695 1.43937 12.0254C1.43937 11.7682 1.23429 11.5859 0.866455 11.5859H0.674399V11.3288H0.866455C1.15291 11.3288 1.35148 11.1693 1.35148 10.9251C1.35148 10.6908 1.17896 10.5313 0.912029 10.5313C0.661379 10.5313 0.430259 10.6712 0.417235 10.9023H0.134033C0.150309 10.528 0.495362 10.2773 0.915282 10.2773C1.3645 10.2773 1.63794 10.5703 1.63469 10.9089C1.63794 11.1758 1.48169 11.3744 1.23429 11.4427V11.459C1.54028 11.5078 1.72909 11.7259 1.72583 12.0254C1.72909 12.4128 1.37427 12.6992 0.905519 12.6992Z" fill="#4C61FF"/>
</g>
<defs>
<clipPath id="clip0_29_128">
<rect width="1" height="3" fill="white"/>
</clipPath>
<clipPath id="clip1_29_128">
<rect width="2" height="3" fill="white" transform="translate(0 5)"/>
</clipPath>
<clipPath id="clip2_29_128">
<rect width="2" height="3" fill="white" transform="translate(0 10)"/>
</clipPath>
</defs>
</svg>
