<svg width="21" height="13" viewBox="0 0 15 13" fill="none" xmlns="http://www.w3.org/2000/svg">
<path d="M9.42188 3.53125C9.38021 3.16667 9.25 2.85156 9.03125 2.58594C8.8125 2.32031 8.52083 2.11979 8.15625 1.98438C7.79167 1.84896 7.38021 1.78125 6.92188 1.78125C6.43229 1.78125 6 1.85938 5.625 2.01562C5.25 2.17188 4.95833 2.39062 4.75 2.67188C4.54167 2.95312 4.4375 3.27604 4.4375 3.64062C4.4375 4.16146 4.65104 4.5599 5.07812 4.83594C5.50521 5.11198 6.02083 5.32812 6.625 5.48438L7.75 5.79688C8.625 6.01562 9.3776 6.35938 10.0078 6.82812C10.638 7.29688 10.9531 7.99479 10.9531 8.92188C10.9531 9.53646 10.7917 10.0938 10.4688 10.5938C10.1458 11.0938 9.67448 11.487 9.05469 11.7734C8.4349 12.0599 7.69792 12.2031 6.84375 12.2031C6.04167 12.2031 5.34115 12.0729 4.74219 11.8125C4.14323 11.5521 3.67448 11.1849 3.33594 10.7109C2.9974 10.237 2.80729 9.6875 2.76562 9.0625H4.20312C4.24479 9.46875 4.38802 9.8099 4.63281 10.0859C4.8776 10.362 5.19271 10.5703 5.57812 10.7109C5.96354 10.8516 6.38542 10.9219 6.84375 10.9219C7.36458 10.9219 7.83333 10.8385 8.25 10.6719C8.66667 10.5052 8.99219 10.2656 9.22656 9.95312C9.46094 9.64062 9.57812 9.28646 9.57812 8.89062C9.57812 8.54688 9.48177 8.25781 9.28906 8.02344C9.09635 7.78906 8.84115 7.59896 8.52344 7.45312C8.20573 7.30729 7.8125 7.16667 7.34375 7.03125L5.95312 6.65625C5.02604 6.38542 4.3151 6.01042 3.82031 5.53125C3.32552 5.05208 3.07812 4.44271 3.07812 3.70312C3.07812 3.07812 3.25 2.52604 3.59375 2.04688C3.9375 1.56771 4.40365 1.19531 4.99219 0.929688C5.58073 0.664062 6.23958 0.53125 6.96875 0.53125C7.6875 0.53125 8.33333 0.661458 8.90625 0.921875C9.47917 1.18229 9.93229 1.53906 10.2656 1.99219C10.599 2.44531 10.776 2.95833 10.7969 3.53125H9.42188Z" fill="#4C61FF"/>
<path d="M0 7L15 7" stroke="#4C61FF"/>
</svg>
