<svg width="20" height="22" viewBox="0 0 20 22" fill="none" xmlns="http://www.w3.org/2000/svg">
<rect width="22" height="22" fill="white"/>
<path d="M13.4219 7.53125C13.3802 7.16667 13.25 6.85156 13.0312 6.58594C12.8125 6.32031 12.5208 6.11979 12.1562 5.98438C11.7917 5.84896 11.3802 5.78125 10.9219 5.78125C10.4323 5.78125 10 5.85938 9.625 6.01562C9.25 6.17188 8.95833 6.39062 8.75 6.67188C8.54167 6.95312 8.4375 7.27604 8.4375 7.64062C8.4375 8.16146 8.65104 8.5599 9.07812 8.83594C9.50521 9.11198 10.0208 9.32812 10.625 9.48438L11.75 9.79688C12.625 10.0156 13.3776 10.3594 14.0078 10.8281C14.638 11.2969 14.9531 11.9948 14.9531 12.9219C14.9531 13.5365 14.7917 14.0938 14.4688 14.5938C14.1458 15.0938 13.6745 15.487 13.0547 15.7734C12.4349 16.0599 11.6979 16.2031 10.8438 16.2031C10.0417 16.2031 9.34115 16.0729 8.74219 15.8125C8.14323 15.5521 7.67448 15.1849 7.33594 14.7109C6.9974 14.237 6.80729 13.6875 6.76562 13.0625H8.20312C8.24479 13.4688 8.38802 13.8099 8.63281 14.0859C8.8776 14.362 9.19271 14.5703 9.57812 14.7109C9.96354 14.8516 10.3854 14.9219 10.8438 14.9219C11.3646 14.9219 11.8333 14.8385 12.25 14.6719C12.6667 14.5052 12.9922 14.2656 13.2266 13.9531C13.4609 13.6406 13.5781 13.2865 13.5781 12.8906C13.5781 12.5469 13.4818 12.2578 13.2891 12.0234C13.0964 11.7891 12.8411 11.599 12.5234 11.4531C12.2057 11.3073 11.8125 11.1667 11.3438 11.0312L9.95312 10.6562C9.02604 10.3854 8.3151 10.0104 7.82031 9.53125C7.32552 9.05208 7.07812 8.44271 7.07812 7.70312C7.07812 7.07812 7.25 6.52604 7.59375 6.04688C7.9375 5.56771 8.40365 5.19531 8.99219 4.92969C9.58073 4.66406 10.2396 4.53125 10.9688 4.53125C11.6875 4.53125 12.3333 4.66146 12.9062 4.92188C13.4792 5.18229 13.9323 5.53906 14.2656 5.99219C14.599 6.44531 14.776 6.95833 14.7969 7.53125H13.4219Z" fill="#3B4753"/>
<path d="M4 11L19 11" stroke="#3B4753"/>
</svg>
