<svg width="21" height="16" viewBox="0 0 12 16" fill="none" xmlns="http://www.w3.org/2000/svg">
<path d="M10.0625 0.6875V8.17188C10.0625 8.94271 9.88021 9.63281 9.51562 10.2422C9.15104 10.8516 8.63542 11.3307 7.96875 11.6797C7.30208 12.0286 6.53125 12.2031 5.65625 12.2031C4.78125 12.2031 4.01042 12.0286 3.34375 11.6797C2.67708 11.3307 2.16146 10.8516 1.79688 10.2422C1.43229 9.63281 1.25 8.94271 1.25 8.17188V0.6875H2.65625V8.0625C2.65625 8.60417 2.77865 9.08854 3.02344 9.51562C3.26823 9.94271 3.61719 10.2786 4.07031 10.5234C4.52344 10.7682 5.05208 10.8906 5.65625 10.8906C6.27083 10.8906 6.80469 10.7682 7.25781 10.5234C7.71094 10.2786 8.05729 9.94271 8.29688 9.51562C8.53646 9.08854 8.65625 8.60417 8.65625 8.0625V0.6875H10.0625Z" fill="#3B4753"/>
<path d="M0 15H11" stroke="#626262"/>
</svg>
