<svg width="22" height="22" viewBox="0 0 22 22" fill="none" xmlns="http://www.w3.org/2000/svg">
<rect width="22" height="22" fill="white"/>
<path d="M15.0625 3.6875V11.1719C15.0625 11.9427 14.8802 12.6328 14.5156 13.2422C14.151 13.8516 13.6354 14.3307 12.9688 14.6797C12.3021 15.0286 11.5312 15.2031 10.6562 15.2031C9.78125 15.2031 9.01042 15.0286 8.34375 14.6797C7.67708 14.3307 7.16146 13.8516 6.79688 13.2422C6.43229 12.6328 6.25 11.9427 6.25 11.1719V3.6875H7.65625V11.0625C7.65625 11.6042 7.77865 12.0885 8.02344 12.5156C8.26823 12.9427 8.61719 13.2786 9.07031 13.5234C9.52344 13.7682 10.0521 13.8906 10.6562 13.8906C11.2708 13.8906 11.8047 13.7682 12.2578 13.5234C12.7109 13.2786 13.0573 12.9427 13.2969 12.5156C13.5365 12.0885 13.6562 11.6042 13.6562 11.0625V3.6875H15.0625Z" fill="#3B4753"/>
<path d="M5 18H16" stroke="#626262"/>
</svg>
