<svg width="100" height="100" viewBox="0 0 100 100" fill="none" xmlns="http://www.w3.org/2000/svg">
<g clip-path="url(#clip0_2295_7016)">
<rect x="7" y="51.6758" width="43" height="37.3913" rx="1.11845" fill="#A3DEFF"/>
<ellipse cx="39.1785" cy="63.7439" rx="3.95587" ry="4.06423" fill="white"/>
<path d="M48.9446 89.8844L8.1487 89.8851C7.51429 89.8851 7 89.3708 7 88.7364V81.7631C7 81.6138 7.02759 81.469 7.08508 81.3311C8.6951 77.4709 12.7623 69.5649 16.8668 67.2222C22.0904 64.2407 22.6708 72.5889 26.7335 79.7444C30.7963 86.9 30.077 73.3384 40.6631 76.7659C49.1715 79.5206 50.0018 86.3216 50 88.8851C49.9996 89.4605 49.52 89.8844 48.9446 89.8844Z" fill="#9FFFA3"/>
<path d="M48.9446 89.8844L8.1487 89.8851C7.51429 89.8851 7 89.3708 7 88.7364V81.7631C7 81.6138 7.02759 81.469 7.08508 81.3311C8.6951 77.4709 12.7623 69.5649 16.8668 67.2222C22.0904 64.2407 22.6708 72.5889 26.7335 79.7444C30.7963 86.9 30.077 73.3384 40.6631 76.7659C49.1715 79.5206 50.0018 86.3216 50 88.8851C49.9996 89.4605 49.52 89.8844 48.9446 89.8844Z" fill="black" fill-opacity="0.2"/>
<path d="M7 44.4258V12.1897C7 11.2824 7.73553 10.5469 8.64286 10.5469H50H91.3571C92.2645 10.5469 93 11.2824 93 12.1897V87.4258C93 88.3331 92.2645 89.0686 91.3571 89.0686H57.2516C56.3442 89.0686 55.6087 88.3331 55.6087 87.4258V47.7115C55.6087 46.8041 54.8732 46.0686 53.9658 46.0686H8.64286C7.73553 46.0686 7 45.3331 7 44.4258Z" fill="#ECECFB"/>
</g>
<defs>
<clipPath id="clip0_2295_7016">
<rect width="100" height="100" fill="white"/>
</clipPath>
</defs>
</svg>
