<svg width="111" height="36" viewBox="0 0 111 36" fill="none" xmlns="http://www.w3.org/2000/svg">
<path d="M8.07405 0C11.3473 0 14.1696 2.01531 14.1696 5.42248C14.1696 8.48168 11.391 10.7 8.07405 10.7C4.75714 10.7 1.97851 8.48168 1.97851 5.42248C1.96396 2.01531 4.80079 0 8.07405 0ZM2.22583 10.5115V26.4454C2.22583 28.4607 2.08035 30.2151 1.71665 31.7229C1.3675 33.2308 0.814679 34.6951 0 36C4.88807 36 8.46685 34.9996 10.6345 32.9843C12.8021 30.969 13.8641 28.1563 13.8641 24.4881V10.5115C12.2056 11.9178 9.67432 12.4688 8.05951 12.4688C6.31377 12.4688 4.04431 11.9613 2.22583 10.5115ZM41.1558 17.9493C41.1558 10.758 35.9623 6.88683 28.441 6.88683C20.9198 6.88683 15.7262 10.758 15.7262 17.9493C15.7262 25.1841 20.9198 29.0117 28.441 29.0117C35.9623 29.0117 41.1558 25.1841 41.1558 17.9493ZM26.7826 17.9493C26.7826 13.3242 26.8844 10.4535 28.441 10.4535C29.9976 10.4535 30.0995 13.3242 30.0995 17.9493C30.0995 22.6178 29.9976 25.445 28.441 25.445C26.8844 25.445 26.7826 22.6178 26.7826 17.9493ZM59.7043 6.88683C57.333 6.88683 55.1218 7.94523 53.8997 9.94603V0.753929H42.7997V28.1998H53.8997V25.938C55.1072 27.9968 57.4785 28.9972 59.7043 28.9972C65.7126 28.9972 69.0877 24.0677 69.0877 17.8333C69.0877 11.4684 65.5089 6.88683 59.7043 6.88683ZM55.2236 22.2118C53.667 22.2118 53.0996 20.1965 53.0996 17.8333C53.0996 15.7745 53.5506 13.5562 55.2236 13.5562C56.8384 13.5562 57.5949 15.7745 57.5949 17.8333C57.5803 20.211 56.7366 22.2118 55.2236 22.2118ZM92.5388 17.2388C92.5388 11.2509 88.2472 6.88683 81.8461 6.88683C75.3432 6.88683 70.4988 11.6134 70.4988 18.1522C70.4988 25.0391 75.2414 29.0117 82.1953 29.0117C88.5527 29.0117 92.0296 25.6915 92.437 19.8631C88.2036 22.4293 81.1333 21.7189 80.2895 17.2533H92.5388V17.2388ZM84.1156 14.5276H80.2895C80.2459 12.0193 80.9005 10.4535 82.1516 10.4535C83.5046 10.4535 84.1156 11.8164 84.1156 14.5276ZM108.731 7.2348C105.661 7.2348 104.701 9.35159 104.148 13.3097V7.64076H94.2118V28.1998H105.355V17.7463C105.966 15.934 108.236 15.789 111 16.0934V7.45228C110.345 7.2348 109.08 7.2348 108.731 7.2348Z" fill="black"/>
</svg>
