<svg width="100" height="100" viewBox="0 0 100 100" fill="none" xmlns="http://www.w3.org/2000/svg">
<path d="M92.989 91.4425V29.0034C92.989 28.5217 92.7976 28.0597 92.457 27.7191L72.1957 7.45775C71.8551 7.11714 71.3931 6.92578 70.9114 6.92578H8.81624C7.81316 6.92578 7 7.73893 7 8.74202V91.4425C7 92.4455 7.81315 93.2587 8.81624 93.2587H91.1727C92.1758 93.2587 92.989 92.4455 92.989 91.4425Z" fill="#F4F9FF"/>
<path d="M92.379 27.6309L72.2939 7.54588C72.0651 7.31705 71.6738 7.47912 71.6738 7.80274V27.8878C71.6738 28.0884 71.8365 28.251 72.0371 28.251H92.1221C92.4458 28.251 92.6078 27.8598 92.379 27.6309Z" fill="#4C61FF" stroke="#ECECFB" stroke-width="1.07762"/>
<rect x="59.3994" y="52.2617" width="9.72266" height="20.0935" rx="0.684533" fill="#4C61FF"/>
<rect x="31.543" y="52.2617" width="22.6862" height="20.0935" rx="0.684533" fill="#82AFFF"/>
<rect x="31.543" y="34.0781" width="38.2425" height="14.2599" rx="0.684533" fill="#82AFFF"/>
</svg>
