<svg width="100" height="100" viewBox="0 0 100 100" fill="none" xmlns="http://www.w3.org/2000/svg">
<path d="M7 88.9649V11.0351C7 8.80657 8.80657 7 11.0351 7H31.8343C33.2824 7 34.6194 7.77589 35.3378 9.03312L39.8942 17.0069C40.6126 18.2641 41.9496 19.04 43.3977 19.04H88.9649C91.1934 19.04 93 20.8466 93 23.0751V88.9649C93 91.1934 91.1934 93 88.9649 93H11.0351C8.80657 93 7 91.1934 7 88.9649Z" fill="#ECECFB"/>
<path d="M39.8968 38.7045V57.0771C39.8968 57.8243 39.2911 58.43 38.5439 58.43H35.3759C34.2 58.43 33.5839 59.8268 34.3768 60.6952L48.9643 76.6719C49.5189 77.2793 50.4826 77.2554 51.0065 76.6213L64.2046 60.6446C64.9334 59.7623 64.3059 58.43 63.1616 58.43H60.6419C59.8947 58.43 59.289 57.8243 59.289 57.0771V38.7045C59.289 37.9573 58.6833 37.3516 57.936 37.3516H41.2498C40.5026 37.3516 39.8968 37.9573 39.8968 38.7045Z" fill="#82AFFF"/>
</svg>
