<svg width="18" height="20" viewBox="0 0 18 20" fill="none" xmlns="http://www.w3.org/2000/svg">
<path fill-rule="evenodd" clip-rule="evenodd" d="M9.60604 0.704568C9.24805 0.431811 8.75195 0.431811 8.39396 0.704568L0.912914 6.40441C0.416418 6.78269 0.125 7.37109 0.125 7.99527V17.5C0.125 18.712 1.19038 19.5 2.25 19.5H6H12H15.75C16.8096 19.5 17.875 18.712 17.875 17.5V7.99527C17.875 7.37109 17.5836 6.78269 17.0871 6.40441L9.60604 0.704568ZM13 17.5H15.75C15.8136 17.5 15.8551 17.4795 15.875 17.4647V7.99527L9 2.75718L2.125 7.99527L1.51896 7.19984L2.125 7.99527V17.4647C2.14492 17.4795 2.18642 17.5 2.25 17.5H5V11.5C5 10.9477 5.44772 10.5 6 10.5H12C12.5523 10.5 13 10.9477 13 11.5V17.5ZM7 17.5H11V12.5H7V17.5Z" fill="#EAEAEA"/>
</svg>
